# Blender v3.0.0 OBJ File: 'Outdoor Editor2.blend'
# www.blender.org
mtllib Bush_03.mtl
o Plane.367_Plane.396
v 0.303374 -0.049658 0.031940
v -0.372453 -0.052748 0.060525
v 0.329521 0.522534 0.711983
v -0.346306 0.519444 0.740568
v -0.036622 0.000729 0.002617
v -0.008392 0.520989 0.726276
v 0.316447 0.236438 0.371961
v -0.359380 0.233348 0.400547
v -0.023548 0.286825 0.342638
v 0.420654 -0.084705 0.307513
v 0.110113 0.281944 -0.168619
v -0.177238 0.187155 0.906815
v -0.487779 0.553803 0.430682
v 0.304775 0.151730 0.084653
v -0.332509 0.370479 0.668748
v 0.121708 0.051225 0.607164
v -0.188833 0.417873 0.131031
v 0.005829 0.287660 0.384304
v -0.138289 0.103334 0.900213
v 0.455263 0.317424 0.656428
v -0.488582 0.145157 0.084069
v 0.104969 0.359247 -0.159716
v 0.139926 0.274662 0.789581
v -0.191806 0.252202 -0.037823
v -0.313435 0.124245 0.492141
v 0.280116 0.338336 0.248356
v -0.035221 0.295574 0.381509
vt 0.743454 0.683545
vt 0.905465 0.834858
vt 0.743454 0.834858
vt 0.743454 0.986170
vt 0.905465 0.986170
vt 0.581443 0.834858
vt 0.581443 0.986170
vt 0.581443 0.683545
vt 0.743454 0.683545
vt 0.905465 0.834858
vt 0.743454 0.834858
vt 0.905465 0.986170
vt 0.743454 0.986170
vt 0.581443 0.834858
vt 0.581443 0.986170
vt 0.581443 0.683545
vt 0.743454 0.834858
vt 0.905465 0.683545
vt 0.905465 0.834858
vt 0.905465 0.986170
vt 0.743454 0.986170
vt 0.581443 0.834858
vt 0.581443 0.986170
vt 0.743454 0.683545
vt 0.905465 0.683545
vt 0.905465 0.683545
vt 0.581443 0.683545
vn -0.2198 0.8365 -0.5019
vn -0.0307 0.7654 -0.6428
vn 0.1664 0.7513 -0.6386
vn -0.2266 0.7495 -0.6220
vn 0.3741 0.9097 0.1801
vn 0.6595 0.6609 0.3582
vn 0.4789 0.8741 0.0813
vn -0.3299 0.9437 0.0256
vn -0.4408 0.8667 0.2336
vn -0.0956 0.9912 0.0918
vn 0.1689 0.8383 -0.5184
vn 0.5806 0.7828 0.2241
vn 0.4725 0.8199 0.3232
usemtl Oak
s off
f 8/1/1 6/2/1 9/3/1
f 7/4/2 6/2/2 3/5/2
f 5/6/3 7/4/3 1/7/3
f 2/8/4 9/3/4 5/6/4
f 17/9/5 15/10/5 18/11/5
f 18/11/6 12/12/6 16/13/6
f 14/14/6 16/13/6 10/15/6
f 11/16/7 18/11/7 14/14/7
f 27/17/8 22/18/8 24/19/8
f 27/17/9 21/20/9 25/21/9
f 23/22/9 25/21/9 19/23/9
f 23/22/10 26/24/10 27/17/10
f 8/1/2 4/25/2 6/2/2
f 7/4/11 9/3/11 6/2/11
f 5/6/3 9/3/3 7/4/3
f 2/8/4 8/1/4 9/3/4
f 17/9/12 13/26/12 15/10/12
f 18/11/13 15/10/13 12/12/13
f 14/14/6 18/11/6 16/13/6
f 11/16/7 17/9/7 18/11/7
f 27/17/10 26/24/10 22/18/10
f 27/17/8 24/19/8 21/20/8
f 23/22/9 27/17/9 25/21/9
f 23/22/10 20/27/10 26/24/10
o Plane.369_Plane.398
v -0.305045 -0.049658 0.001447
v 0.363596 -0.052748 -0.100916
v -0.405447 0.522534 -0.671651
v 0.263195 0.519444 -0.774015
v 0.036118 0.000729 -0.006608
v -0.071126 0.520989 -0.722833
v -0.355246 0.236438 -0.335102
v 0.313395 0.233348 -0.437466
v -0.014083 0.286825 -0.343158
v -0.483748 0.079053 -0.632795
v -0.109406 -0.270319 -0.190782
v 0.092267 0.754783 -0.586519
v 0.466608 0.405411 -0.144505
v -0.332096 -0.068864 -0.360549
v 0.279438 0.580097 -0.365512
v -0.195740 0.416918 -0.609657
v 0.178601 0.067546 -0.167643
v -0.044089 0.269001 -0.337411
v 0.339591 -0.087497 -0.638191
v -0.238231 -0.262483 -0.333116
v 0.220252 0.755174 -0.380878
v -0.357569 0.580188 -0.075803
v 0.016599 -0.162324 -0.542939
v -0.068658 0.667681 -0.228341
v 0.279922 0.333839 -0.509534
v -0.297900 0.158852 -0.204459
v -0.043070 0.259012 -0.414283
vt 0.743454 0.683545
vt 0.905465 0.834858
vt 0.743454 0.834858
vt 0.743454 0.986170
vt 0.905465 0.986170
vt 0.581443 0.834858
vt 0.581443 0.986170
vt 0.581443 0.683545
vt 0.743454 0.683545
vt 0.905465 0.834858
vt 0.743454 0.834858
vt 0.905465 0.986170
vt 0.743454 0.986170
vt 0.581443 0.834858
vt 0.581443 0.986170
vt 0.581443 0.683545
vt 0.743454 0.683545
vt 0.905465 0.834858
vt 0.743454 0.834858
vt 0.905465 0.986170
vt 0.743454 0.986170
vt 0.581443 0.834858
vt 0.581443 0.986170
vt 0.581443 0.683545
vt 0.905465 0.683545
vt 0.905465 0.683545
vt 0.905465 0.683545
vn 0.2734 0.8365 0.4749
vn 0.1008 0.7654 0.6356
vn -0.0955 0.7513 0.6530
vn 0.2933 0.7495 0.5934
vn -0.3041 0.3946 0.8671
vn -0.6221 0.4884 0.6119
vn -0.4044 0.2852 0.8690
vn -0.6731 0.2710 -0.6881
vn -0.3245 0.2339 -0.9165
vn -0.6605 0.1321 -0.7391
vn -0.1112 0.8383 0.5337
vn -0.5235 0.3945 0.7552
vn -0.4198 0.5047 0.7544
vn -0.5023 0.1867 -0.8443
vn -0.5168 0.3275 -0.7910
usemtl Oak
s off
f 35/28/14 33/29/14 36/30/14
f 34/31/15 33/29/15 30/32/15
f 32/33/16 34/31/16 28/34/16
f 29/35/17 36/30/17 32/33/17
f 44/36/18 42/37/18 45/38/18
f 45/38/19 39/39/19 43/40/19
f 41/41/19 43/40/19 37/42/19
f 38/43/20 45/38/20 41/41/20
f 53/44/21 51/45/21 54/46/21
f 54/46/22 48/47/22 52/48/22
f 50/49/22 52/48/22 46/50/22
f 47/51/23 54/46/23 50/49/23
f 35/28/15 31/52/15 33/29/15
f 34/31/24 36/30/24 33/29/24
f 32/33/16 36/30/16 34/31/16
f 29/35/17 35/28/17 36/30/17
f 44/36/25 40/53/25 42/37/25
f 45/38/26 42/37/26 39/39/26
f 41/41/19 45/38/19 43/40/19
f 38/43/20 44/36/20 45/38/20
f 53/44/27 49/54/27 51/45/27
f 54/46/28 51/45/28 48/47/28
f 50/49/22 54/46/22 52/48/22
f 47/51/23 53/44/23 54/46/23
o Plane.372_Plane.401
v -0.272610 -0.049658 0.136889
v 0.280845 -0.052748 -0.252017
v -0.661739 0.522534 -0.421430
v -0.108285 0.519444 -0.810336
v 0.029416 0.000729 -0.021974
v -0.385012 0.520989 -0.615883
v -0.467174 0.236438 -0.142271
v 0.086280 0.233348 -0.531176
v -0.165148 0.286825 -0.301133
v -0.644995 -0.052058 -0.414550
v -0.059285 -0.266712 -0.152948
v -0.294652 0.756085 -0.535836
v 0.291058 0.541431 -0.274234
v -0.373053 -0.141031 -0.221867
v -0.001797 0.648758 -0.405035
v -0.469824 0.352014 -0.475193
v 0.115887 0.137360 -0.213591
v -0.197882 0.263040 -0.282510
v -0.005292 -0.204396 -0.598931
v -0.456437 -0.179397 -0.095530
v 0.119265 0.673330 -0.530892
v -0.331879 0.698329 -0.027491
v -0.280519 -0.181360 -0.392254
v -0.106307 0.685829 -0.279192
v 0.056986 0.234467 -0.564912
v -0.394158 0.259466 -0.061511
v -0.218240 0.257503 -0.358234
vt 0.743454 0.683545
vt 0.905465 0.834858
vt 0.743454 0.834858
vt 0.743454 0.986170
vt 0.905465 0.986170
vt 0.581443 0.834858
vt 0.581443 0.986170
vt 0.581443 0.683545
vt 0.743454 0.683545
vt 0.905465 0.834858
vt 0.743454 0.834858
vt 0.905465 0.986170
vt 0.743454 0.986170
vt 0.581443 0.834858
vt 0.581443 0.986170
vt 0.581443 0.683545
vt 0.743454 0.683545
vt 0.905465 0.834858
vt 0.743454 0.834858
vt 0.905465 0.986170
vt 0.743454 0.986170
vt 0.581443 0.986170
vt 0.581443 0.683545
vt 0.581443 0.834858
vt 0.905465 0.683545
vt 0.905465 0.683545
vt 0.905465 0.683545
vn 0.4559 0.8365 0.3039
vn 0.3729 0.7654 0.5245
vn 0.2046 0.7513 0.6274
vn 0.5265 0.7495 0.4012
vn -0.0721 0.3351 0.9394
vn -0.4725 0.3276 0.8182
vn -0.1319 0.2028 0.9703
vn -0.8186 0.3039 -0.4873
vn -0.5863 0.1450 -0.7970
vn -0.8487 0.1595 -0.5042
vn 0.1376 0.8383 0.5275
vn -0.3082 0.2705 0.9120
vn -0.2452 0.4045 0.8810
vn -0.7318 0.1553 -0.6636
vn -0.7023 0.3025 -0.6444
usemtl Oak
s off
f 62/55/29 60/56/29 63/57/29
f 61/58/30 60/56/30 57/59/30
f 59/60/31 61/58/31 55/61/31
f 56/62/32 63/57/32 59/60/32
f 71/63/33 69/64/33 72/65/33
f 72/65/34 66/66/34 70/67/34
f 68/68/34 70/67/34 64/69/34
f 65/70/35 72/65/35 68/68/35
f 80/71/36 78/72/36 81/73/36
f 81/73/37 75/74/37 79/75/37
f 73/76/37 81/73/37 79/75/37
f 74/77/38 81/73/38 77/78/38
f 62/55/30 58/79/30 60/56/30
f 61/58/39 63/57/39 60/56/39
f 59/60/31 63/57/31 61/58/31
f 56/62/32 62/55/32 63/57/32
f 71/63/40 67/80/40 69/64/40
f 72/65/41 69/64/41 66/66/41
f 68/68/34 72/65/34 70/67/34
f 65/70/35 71/63/35 72/65/35
f 80/71/42 76/81/42 78/72/42
f 81/73/43 78/72/43 75/74/43
f 73/76/37 77/78/37 81/73/37
f 74/77/38 80/71/38 81/73/38
o Plane.373_Plane.402
v -0.196887 -0.049658 -0.233002
v 0.310747 -0.052748 0.214063
v 0.254855 0.522534 -0.741992
v 0.762489 0.519444 -0.294928
v 0.028249 0.000729 0.023456
v 0.508672 0.520989 -0.518460
v 0.028984 0.236438 -0.487497
v 0.536618 0.233348 -0.040433
v 0.254120 0.286825 -0.231039
v 0.052494 0.269315 -0.766992
v -0.139250 -0.125834 -0.252541
v 0.712169 0.597300 -0.269198
v 0.520426 0.202150 0.245254
v -0.084604 0.120793 -0.487454
v 0.616297 0.399725 -0.011972
v 0.382331 0.433307 -0.518095
v 0.190588 0.038158 -0.003644
v 0.245234 0.284786 -0.238557
v 0.827186 0.174208 -0.288073
v 0.342462 -0.252912 -0.488523
v 0.207531 0.735147 0.015110
v -0.277193 0.308027 -0.185340
v 0.582900 -0.008761 -0.448830
v -0.034831 0.521587 -0.085115
v 0.517358 0.454677 -0.136481
v 0.032635 0.027557 -0.336932
v 0.273072 0.271709 -0.297238
vt 0.743454 0.683545
vt 0.905465 0.834858
vt 0.743454 0.834858
vt 0.743454 0.986170
vt 0.905465 0.986170
vt 0.581443 0.834858
vt 0.581443 0.986170
vt 0.581443 0.683545
vt 0.743454 0.683545
vt 0.905465 0.834858
vt 0.743454 0.834858
vt 0.905465 0.986170
vt 0.743454 0.986170
vt 0.581443 0.834858
vt 0.581443 0.986170
vt 0.581443 0.683545
vt 0.743454 0.834858
vt 0.905465 0.683545
vt 0.905465 0.834858
vt 0.743454 0.986170
vt 0.905465 0.986170
vt 0.581443 0.986170
vt 0.581443 0.834858
vt 0.743454 0.683545
vt 0.905465 0.683545
vt 0.905465 0.683545
vt 0.581443 0.683545
vn -0.1887 0.8365 0.5144
vn -0.4227 0.7654 0.4853
vn -0.5621 0.7513 0.3458
vn -0.2668 0.7495 0.6058
vn -0.5345 0.6420 0.5497
vn -0.5400 0.8237 0.1728
vn -0.6515 0.5939 0.4720
vn -0.1332 0.5409 -0.8305
vn -0.0284 0.4509 -0.8921
vn 0.1131 0.5663 -0.8164
vn -0.1687 0.3179 -0.9330
vn -0.4807 0.8383 0.2573
vn -0.6076 0.7230 0.3288
vn -0.4887 0.7703 0.4096
vn 0.0088 0.6534 -0.7570
usemtl Oak
s off
f 89/82/44 87/83/44 90/84/44
f 88/85/45 87/83/45 84/86/45
f 86/87/46 88/85/46 82/88/46
f 83/89/47 90/84/47 86/87/47
f 98/90/48 96/91/48 99/92/48
f 99/92/49 93/93/49 97/94/49
f 95/95/49 97/94/49 91/96/49
f 92/97/50 99/92/50 95/95/50
f 108/98/51 103/99/51 105/100/51
f 106/101/52 105/100/52 102/102/52
f 100/103/53 108/98/53 106/101/53
f 104/104/54 107/105/54 108/98/54
f 89/82/45 85/106/45 87/83/45
f 88/85/55 90/84/55 87/83/55
f 86/87/46 90/84/46 88/85/46
f 83/89/47 89/82/47 90/84/47
f 98/90/56 94/107/56 96/91/56
f 99/92/57 96/91/57 93/93/57
f 95/95/49 99/92/49 97/94/49
f 92/97/50 98/90/50 99/92/50
f 108/98/54 107/105/54 103/99/54
f 106/101/58 108/98/58 105/100/58
f 100/103/53 104/104/53 108/98/53
f 104/104/54 101/108/54 107/105/54
o Plane.375_Plane.404
v -0.061292 -0.023135 0.302042
v -0.069155 -0.016475 -0.374318
v -0.342771 0.820181 0.313618
v -0.350635 0.826841 -0.362742
v -0.000868 0.001683 -0.036675
v -0.346703 0.823511 -0.024562
v -0.202031 0.398523 0.307830
v -0.209895 0.405183 -0.368530
v -0.141608 0.423341 -0.030887
v -0.441686 -0.086063 -0.089129
v 0.168500 0.090264 -0.321832
v -0.559149 0.736848 0.226412
v 0.051037 0.913175 -0.006291
v -0.108713 -0.016536 -0.146497
v -0.254056 0.825011 0.110060
v -0.500417 0.325392 0.068641
v 0.109768 0.501720 -0.164062
v -0.167445 0.394919 0.011273
v -0.125997 -0.146457 -0.063968
v -0.062401 0.239815 0.487683
v -0.273128 0.579710 -0.555475
v -0.209533 0.965981 -0.003824
v -0.160809 0.041049 0.223479
v -0.241331 0.772846 -0.279650
v -0.199563 0.216627 -0.309722
v -0.135967 0.602898 0.241929
v -0.234375 0.404132 -0.022275
vt 0.779109 0.372701
vt 0.987738 0.524013
vt 0.779109 0.524013
vt 0.779109 0.675325
vt 0.987738 0.675325
vt 0.570480 0.524013
vt 0.570480 0.675325
vt 0.570480 0.372701
vt 0.779109 0.372701
vt 0.987738 0.524013
vt 0.779109 0.524013
vt 0.987738 0.675325
vt 0.779109 0.675325
vt 0.570480 0.524013
vt 0.570480 0.675325
vt 0.779109 0.524013
vt 0.987738 0.372701
vt 0.987738 0.524013
vt 0.779109 0.675325
vt 0.987738 0.675325
vt 0.570480 0.675325
vt 0.570480 0.524013
vt 0.779109 0.372701
vt 0.987738 0.372701
vt 0.987738 0.372701
vt 0.570480 0.372701
vt 0.570480 0.372701
vn 0.8706 0.4494 -0.2002
vn 0.9485 0.3167 -0.0079
vn 0.9323 0.3086 0.1889
vn 0.9277 0.3124 -0.2044
vn 0.5544 -0.0787 0.8286
vn 0.2254 -0.3206 0.9200
vn 0.5803 -0.2180 0.7847
vn -0.9955 0.0412 0.0859
vn -0.9817 -0.0830 0.1713
vn -0.9810 -0.1937 0.0075
vn -0.9441 0.0310 0.3283
vn 0.8751 0.4455 0.1888
vn 0.4109 -0.2747 0.8693
vn 0.3863 -0.1319 0.9129
vn -0.9947 -0.0707 -0.0744
usemtl Oak
s off
f 116/109/59 114/110/59 117/111/59
f 115/112/60 114/110/60 111/113/60
f 113/114/61 115/112/61 109/115/61
f 110/116/62 117/111/62 113/114/62
f 125/117/63 123/118/63 126/119/63
f 126/119/64 120/120/64 124/121/64
f 122/122/64 124/121/64 118/123/64
f 122/122/65 125/117/65 126/119/65
f 135/124/66 130/125/66 132/126/66
f 133/127/67 132/126/67 129/128/67
f 127/129/68 135/124/68 133/127/68
f 131/130/69 134/131/69 135/124/69
f 116/109/60 112/132/60 114/110/60
f 115/112/70 117/111/70 114/110/70
f 113/114/61 117/111/61 115/112/61
f 110/116/62 116/109/62 117/111/62
f 125/117/71 121/133/71 123/118/71
f 126/119/72 123/118/72 120/120/72
f 122/122/64 126/119/64 124/121/64
f 122/122/65 119/134/65 125/117/65
f 135/124/69 134/131/69 130/125/69
f 133/127/73 135/124/73 132/126/73
f 127/129/68 131/130/68 135/124/68
f 131/130/69 128/135/69 134/131/69
o Plane.377_Plane.406
v 0.100196 -0.023135 -0.291456
v 0.019701 -0.016475 0.380143
v 0.380779 0.820181 -0.266189
v 0.300284 0.826841 0.405409
v -0.003926 0.001683 0.036474
v 0.340531 0.823511 0.069610
v 0.240487 0.398523 -0.278823
v 0.159992 0.405183 0.392776
v 0.136365 0.423341 0.049108
v 0.455337 0.196562 -0.384336
v -0.187554 0.081154 -0.208436
v 0.562128 0.703273 0.338426
v -0.080763 0.587864 0.514326
v 0.114426 0.193396 -0.331746
v 0.240683 0.645569 0.426376
v 0.508733 0.449917 -0.022955
v -0.134158 0.334509 0.152945
v 0.167822 0.446752 0.029635
v 0.485207 0.304687 0.512449
v 0.493556 -0.038490 -0.070414
v -0.157673 0.829897 0.194007
v -0.149324 0.486720 -0.388856
v 0.536245 0.175671 0.196623
v -0.153499 0.658308 -0.097424
v 0.163767 0.567292 0.353228
v 0.172116 0.224115 -0.229635
v 0.214805 0.438275 0.037402
vt 0.779109 0.372701
vt 0.987738 0.524013
vt 0.779109 0.524013
vt 0.779109 0.675325
vt 0.987738 0.675325
vt 0.570480 0.524013
vt 0.570480 0.675325
vt 0.570480 0.372701
vt 0.779109 0.372701
vt 0.987738 0.524013
vt 0.779109 0.524013
vt 0.987738 0.675325
vt 0.779109 0.675325
vt 0.570480 0.524013
vt 0.570480 0.675325
vt 0.570480 0.372701
vt 0.779109 0.372701
vt 0.987738 0.524013
vt 0.779109 0.524013
vt 0.987738 0.675325
vt 0.779109 0.675325
vt 0.570480 0.524013
vt 0.570480 0.675325
vt 0.570480 0.372701
vt 0.987738 0.372701
vt 0.987738 0.372701
vt 0.987738 0.372701
vn -0.8893 0.4494 0.0849
vn -0.9414 0.3167 -0.1160
vn -0.8996 0.3086 -0.3090
vn -0.9464 0.3124 0.0816
vn -0.4453 0.8306 -0.3344
vn -0.0943 0.8217 -0.5621
vn -0.4682 0.7545 -0.4598
vn 0.5651 0.5971 -0.5692
vn 0.6748 0.7150 -0.1830
vn 0.6796 0.5154 -0.5220
vn -0.8430 0.4455 -0.3014
vn -0.2869 0.8038 -0.5211
vn -0.2655 0.8806 -0.3925
vn 0.6907 0.6274 -0.3595
vn 0.5737 0.7094 -0.4095
usemtl Oak
s off
f 143/136/74 141/137/74 144/138/74
f 142/139/75 141/137/75 138/140/75
f 140/141/76 142/139/76 136/142/76
f 137/143/77 144/138/77 140/141/77
f 152/144/78 150/145/78 153/146/78
f 153/146/79 147/147/79 151/148/79
f 149/149/79 151/148/79 145/150/79
f 146/151/80 153/146/80 149/149/80
f 161/152/81 159/153/81 162/154/81
f 162/154/82 156/155/82 160/156/82
f 158/157/82 160/156/82 154/158/82
f 155/159/83 162/154/83 158/157/83
f 143/136/75 139/160/75 141/137/75
f 142/139/84 144/138/84 141/137/84
f 140/141/76 144/138/76 142/139/76
f 137/143/77 143/136/77 144/138/77
f 152/144/85 148/161/85 150/145/85
f 153/146/86 150/145/86 147/147/86
f 149/149/79 153/146/79 151/148/79
f 146/151/80 152/144/80 153/146/80
f 161/152/87 157/162/87 159/153/87
f 162/154/88 159/153/88 156/155/88
f 158/157/82 162/154/82 160/156/82
f 155/159/83 161/152/83 162/154/83
