# Blender v3.0.0 OBJ File: 'Outdoor Editor2.blend'
# www.blender.org
mtllib Stone_02.mtl
o Stone_02_Sphere.002
v 0.522366 0.505773 0.167393
v -0.456786 -0.035933 -0.546984
v -0.336500 0.293306 0.271524
v -0.196525 -0.032959 -0.743204
v -0.399435 -0.014428 -0.595127
v -0.496152 -0.088774 -0.497985
v -0.198872 0.035805 -0.651403
v -0.339509 0.006214 -0.558823
v 0.403318 -0.490430 0.205039
v -0.318674 0.013702 -0.667342
v 0.308249 0.315429 -0.273974
v -0.473178 -0.197553 -0.506024
v 0.100683 0.486221 0.601361
v -0.333410 0.343650 0.665730
v -0.138307 -0.306310 -0.718382
v -0.263480 0.023752 -0.724732
v -0.144210 -0.239845 -0.754719
v 0.710635 -0.049423 -0.067729
v 0.396996 0.221281 0.388880
v -0.229596 -0.327387 -0.649172
v -0.456257 -0.391376 -0.493729
v -0.488738 -0.032056 -0.432182
v 0.572123 0.489267 0.070096
v 0.276658 0.456836 0.291889
v -0.145184 0.037048 -0.676385
v 0.455333 -0.263104 -0.366280
v 0.756567 -0.343759 -0.154499
v 0.631509 0.166408 -0.039851
v 0.761382 -0.164460 -0.087399
v 0.785717 -0.274428 -0.085093
v 0.390607 -0.328757 -0.394015
v -0.505297 0.123030 0.121875
v 0.200602 -0.418024 -0.253262
v -0.443444 -0.626040 0.056185
v -0.406844 -0.339769 -0.514980
v -0.379188 -0.380422 -0.518422
v 0.703067 -0.240821 -0.043874
v -0.491777 0.057969 -0.188033
v -0.479080 -0.187451 0.590752
v 0.588551 -0.096728 0.064178
v 0.732131 -0.357278 -0.069053
v -0.459877 0.164584 0.051661
v 0.458258 0.510465 0.286311
v 0.274306 0.360711 -0.076740
v -0.412760 0.097500 -0.266263
v -0.182902 -0.346304 -0.603178
v -0.227172 -0.000403 -0.740966
v 0.169172 -0.313187 -0.552946
v 0.494462 -0.492024 0.097868
v -0.465190 -0.485153 0.491041
v -0.501137 0.010143 -0.235127
v 0.254263 -0.589228 0.207458
v -0.472685 -0.322646 -0.469326
v -0.452088 -0.506159 -0.232827
v 0.365019 -0.543772 0.159790
v -0.444503 -0.575765 -0.076410
v -0.279463 -0.374298 -0.546985
v 0.621936 -0.432972 -0.010953
v -0.284959 -0.702494 0.328436
v -0.248175 -0.492215 -0.241068
v -0.120382 -0.593925 0.067676
v -0.420218 -0.692923 0.272136
v 0.639770 -0.362573 -0.227787
v -0.467425 -0.381548 0.280861
v -0.431064 -0.576506 0.452418
v -0.154010 -0.665834 0.344005
v 0.002096 -0.634405 0.309894
v -0.155747 -0.524228 0.383696
v 0.250714 -0.534329 0.284560
v 0.232236 -0.580147 0.276931
v 0.352705 -0.391890 0.316492
v 0.477327 -0.305360 0.194955
v 0.644774 -0.359964 0.001005
v 0.441776 -0.378184 -0.228939
v 0.297778 -0.062417 0.460950
v 0.348086 -0.301181 0.352329
v -0.259201 0.315384 0.237541
v 0.314645 -0.152864 0.428545
v 0.529242 0.020162 0.151106
v 0.777005 -0.357486 -0.112691
v -0.483556 0.180739 0.394640
v -0.247156 -0.111165 0.563805
v -0.475872 -0.339591 0.544324
v -0.187065 0.437779 0.653962
v -0.443400 -0.617212 0.395207
v -0.250725 0.411717 0.611349
v -0.305183 -0.346663 0.497057
v 0.304338 0.538527 0.542868
v -0.479251 -0.042013 0.625296
v -0.472683 0.091330 0.650428
v 0.330518 0.209568 0.508076
v -0.449771 0.229801 0.666792
v 0.386717 0.530284 0.428250
v 0.285962 0.530372 0.574144
v -0.400919 0.295236 0.632964
v 0.344112 0.365239 0.517043
v 0.368735 0.535639 0.542068
v -0.088563 0.471299 0.644923
v 0.081360 0.506820 0.623064
v -0.021224 -0.302254 -0.691524
v -0.016787 0.082156 -0.594913
v 0.675508 0.036183 -0.069079
v 0.072587 0.153754 -0.508447
v 0.223830 -0.256316 -0.525554
v 0.202203 0.235158 -0.391961
v 0.361027 0.378322 -0.140821
v 0.593451 0.453177 0.025316
v 0.443084 0.382614 -0.142211
v 0.608410 0.316152 -0.023636
v 0.641029 0.110412 -0.080651
v -0.290517 -0.700640 0.388629
v -0.439712 -0.671023 0.173649
vt 0.720600 0.544264
vt 0.520023 0.760887
vt 0.571794 0.766921
vt 0.323756 0.708251
vt 0.298259 0.708496
vt 0.265663 0.686520
vt 0.431222 0.752519
vt 0.415227 0.739236
vt 0.398088 0.752550
vt 0.512534 0.639484
vt 0.560029 0.651249
vt 0.525042 0.652107
vt 0.305734 0.590658
vt 0.411952 0.610664
vt 0.398165 0.613971
vt 0.253273 0.572198
vt 0.747150 0.500035
vt 0.820742 0.467264
vt 0.818578 0.557494
vt 0.122115 0.471891
vt 0.138284 0.527220
vt 0.120123 0.413485
vt 0.404545 0.589081
vt 0.319985 0.531521
vt 0.303668 0.547827
vt 0.677090 0.741194
vt 0.712306 0.760034
vt 0.624988 0.765331
vt 0.205293 0.632633
vt 0.251929 0.671150
vt 0.237511 0.658081
vt 0.223408 0.613061
vt 0.148414 0.511788
vt 0.225044 0.572071
vt 0.606876 0.327780
vt 0.687935 0.371436
vt 0.575414 0.371275
vt 0.243642 0.650756
vt 0.261911 0.606092
vt 0.842271 0.423811
vt 0.867557 0.464331
vt 0.792307 0.402847
vt 0.261298 0.400447
vt 0.265133 0.542768
vt 0.279500 0.520002
vt 0.537981 0.684078
vt 0.266722 0.632723
vt 0.728821 0.755754
vt 0.746645 0.707281
vt 0.667507 0.767920
vt 0.575089 0.740160
vt 0.252843 0.327299
vt 0.242365 0.268319
vt 0.160846 0.577247
vt 0.580522 0.680558
vt 0.127592 0.360532
vt 0.692997 0.523267
vt 0.594314 0.571326
vt 0.616808 0.588603
vt 0.612150 0.772069
vt 0.189902 0.615186
vt 0.176430 0.203240
vt 0.156349 0.251551
vt 0.192317 0.309819
vt 0.766420 0.644947
vt 0.776967 0.631163
vt 0.401986 0.745400
vt 0.486090 0.751640
vt 0.510876 0.611557
vt 0.707681 0.457629
vt 0.868425 0.435947
vt 0.784577 0.374518
vt 0.404989 0.280116
vt 0.140372 0.305466
vt 0.797005 0.595389
vt 0.372337 0.542070
vt 0.424463 0.569154
vt 0.584479 0.243624
vt 0.713053 0.317880
vt 0.643596 0.277378
vt 0.704059 0.527390
vt 0.566499 0.227376
vt 0.657094 0.287659
vt 0.208182 0.624210
vt 0.860527 0.453287
vt 0.632506 0.710792
vt 0.351899 0.218983
vt 0.252027 0.263023
vt 0.455305 0.616386
vt 0.807378 0.464778
vt 0.452470 0.653981
vt 0.290767 0.140454
vt 0.299959 0.157397
vt 0.364295 0.169185
vt 0.344496 0.739507
vt 0.377175 0.758689
vt 0.604566 0.550625
vt 0.178239 0.524865
vt 0.850849 0.512713
vt 0.557588 0.579819
vt 0.589261 0.446251
vt 0.558849 0.511350
vt 0.446922 0.193385
vt 0.616696 0.298334
vt 0.573211 0.245095
vt 0.364593 0.409451
vt 0.234452 0.215362
vt 0.235330 0.177443
vt 0.205888 0.174002
vt 0.203808 0.174879
vt 0.262279 0.348397
vt 0.559149 0.402192
vn 0.5587 0.2431 -0.7929
vn 0.5604 0.2434 -0.7917
vn 0.5603 0.2421 -0.7922
vn -0.3364 0.9415 0.0199
vn 0.4180 0.4478 -0.7904
vn 0.0465 0.9596 0.2775
vn 0.2241 -0.5994 0.7685
vn 0.2238 -0.5989 0.7689
vn 0.2238 -0.5997 0.7683
vn 0.2337 -0.4550 0.8593
vn 0.2329 -0.4549 0.8595
vn 0.7218 0.0563 0.6898
vn 0.7224 0.0573 0.6891
vn -0.9839 0.1516 0.0948
vn -0.5588 -0.3152 -0.7671
vn -0.2202 0.9361 -0.2744
vn -0.2207 0.9367 -0.2718
vn -0.6337 0.7232 -0.2746
vn -0.6193 0.7770 -0.1128
vn -0.6181 0.7777 -0.1145
vn -0.6190 0.7770 -0.1145
vn 0.7629 -0.1522 0.6283
vn 0.7619 -0.1502 0.6300
vn 0.7619 -0.1518 0.6297
vn -0.7195 -0.1012 -0.6871
vn -0.7205 -0.1008 -0.6861
vn 0.4140 -0.0925 0.9056
vn -0.8035 0.5952 -0.0088
vn -0.8032 0.5957 -0.0077
vn -0.6953 0.6853 -0.2167
vn 0.6264 -0.0145 0.7793
vn 0.6258 -0.0124 0.7799
vn -0.9757 -0.2060 -0.0750
vn -0.9753 -0.2073 -0.0756
vn -0.9756 -0.2065 -0.0752
vn -0.2205 0.9381 -0.2672
vn -0.2205 0.9387 -0.2648
vn -0.2206 0.9382 -0.2667
vn -0.2927 0.9275 -0.2324
vn -0.2933 0.9278 -0.2306
vn 0.6338 0.3207 -0.7039
vn -0.8617 -0.1451 -0.4863
vn -0.8616 -0.1460 -0.4862
vn -0.8611 -0.1474 -0.4866
vn -0.2562 0.9168 -0.3063
vn -0.2554 0.9167 -0.3073
vn -0.2593 0.9164 -0.3049
vn -0.8362 -0.5150 -0.1886
vn -0.8365 -0.5146 -0.1884
vn -0.8366 -0.5140 -0.1892
vn -0.2663 0.9114 -0.3136
vn -0.2694 0.9109 -0.3125
vn -0.2679 0.9114 -0.3125
vn -0.7066 0.7014 -0.0933
vn -0.7065 0.7017 -0.0921
vn 0.0440 0.9982 -0.0398
vn 0.0443 0.9982 -0.0400
vn -0.9977 0.0386 0.0559
vn -0.2856 0.9052 -0.3148
vn -0.2864 0.9045 -0.3160
vn -0.2866 0.9051 -0.3140
vn 0.5685 -0.1574 -0.8075
vn 0.5685 -0.1540 -0.8081
vn 0.5703 -0.1586 -0.8060
vn -0.3784 0.8862 -0.2674
vn -0.3772 0.8871 -0.2660
vn -0.3783 0.8859 -0.2685
vn -0.6133 0.7817 -0.1135
vn -0.6130 0.7817 -0.1146
vn -0.6143 0.7807 -0.1145
vn -0.9976 -0.0653 -0.0216
vn -0.9976 -0.0663 -0.0215
vn -0.0546 0.9110 -0.4087
vn -0.0541 0.9115 -0.4077
vn -0.0545 0.9051 -0.4216
vn 0.9884 0.1498 0.0251
vn 0.2263 0.8082 -0.5436
vn -0.3126 0.9333 -0.1765
vn -0.3137 0.9329 -0.1770
vn -0.6191 0.7448 -0.2489
vn 0.5637 0.2472 -0.7881
vn 0.5627 0.2481 -0.7885
vn 0.5633 0.2485 -0.7880
vn 0.5716 -0.1675 -0.8032
vn 0.5741 -0.1656 -0.8019
vn 0.5724 -0.1672 -0.8028
vn 0.1756 -0.9267 -0.3323
vn 0.1725 -0.9277 -0.3312
vn 0.1704 -0.9285 -0.3300
vn 0.6318 -0.4196 0.6517
vn -0.3738 0.8884 -0.2667
vn -0.3713 0.8892 -0.2672
vn -0.3746 0.8874 -0.2687
vn 0.6008 -0.3087 0.7374
vn 0.5991 -0.3095 0.7384
vn 0.6649 -0.2974 0.6852
vn 0.1050 -0.9296 -0.3533
vn 0.1075 -0.9290 -0.3540
vn 0.1048 -0.9293 -0.3542
vn -0.9988 -0.0125 0.0476
vn -0.9988 -0.0116 0.0483
vn 0.8835 0.3645 -0.2941
vn 0.0277 -0.9134 -0.4062
vn 0.0290 -0.9137 -0.4053
vn -0.6072 -0.1362 -0.7828
vn -0.6062 -0.1370 -0.7834
vn 0.4428 -0.8753 0.1942
vn 0.4428 -0.8745 0.1980
vn 0.8609 0.0594 0.5054
vn 0.8602 0.0598 0.5065
vn 0.8789 0.0082 0.4770
vn 0.5572 -0.6757 0.4827
vn 0.5572 -0.6748 0.4839
vn -0.8739 0.4126 -0.2572
vn -0.9972 -0.0746 0.0093
vn -0.9972 -0.0743 0.0098
vn -0.9973 -0.0733 0.0081
vn 0.9034 0.0469 -0.4262
vn -0.2817 0.9289 -0.2404
vn -0.2845 0.9279 -0.2409
vn -0.2816 0.9290 -0.2399
vn -0.9586 0.2599 -0.1166
vn -0.9587 0.2598 -0.1160
vn -0.9963 0.0517 0.0685
vn 0.2317 -0.3755 0.8974
vn 0.2307 -0.3770 0.8970
vn 0.2327 -0.3766 0.8967
vn -0.9526 0.2866 -0.1017
vn -0.9527 0.2866 -0.1011
vn -0.0429 -0.9386 -0.3424
vn -0.5320 0.1676 -0.8300
vn -0.5312 0.1673 -0.8306
vn 0.0766 -0.9484 -0.3077
vn 0.0765 -0.9487 -0.3067
vn 0.0741 -0.9484 -0.3082
vn 0.3190 0.5214 -0.7914
vn -0.2732 0.8965 -0.3488
vn -0.2720 0.8972 -0.3480
vn -0.5423 -0.3766 -0.7511
vn -0.1958 0.9059 -0.3756
vn -0.1968 0.9054 -0.3763
vn -0.3385 0.9182 -0.2057
vn -0.3371 0.9192 -0.2036
vn -0.3391 0.9190 -0.2014
vn 0.2632 -0.9632 0.0540
vn 0.2637 -0.9631 0.0533
vn -0.1813 0.9834 0.0008
vn -0.1812 0.9834 -0.0020
vn 0.7961 -0.0444 0.6035
vn 0.7956 -0.0455 0.6041
vn 0.7966 -0.0456 0.6028
vn 0.9699 0.1686 -0.1757
vn 0.7725 0.1196 0.6236
vn 0.7719 0.1207 0.6241
vn 0.2671 -0.9228 -0.2776
vn 0.2678 -0.9224 -0.2782
vn -0.9431 0.3083 -0.1247
vn -0.9431 0.3079 -0.1253
vn 0.8718 -0.0064 0.4898
vn 0.8725 -0.0040 0.4887
vn -0.3725 0.8878 -0.2704
vn -0.3710 0.8881 -0.2713
vn -0.3724 0.8872 -0.2723
vn -0.6045 0.7932 0.0736
vn -0.6037 0.7938 0.0741
vn -0.3310 0.9194 -0.2126
vn -0.3282 0.9202 -0.2133
vn -0.3307 0.9192 -0.2137
vn 0.8785 -0.0185 0.4773
vn 0.8798 -0.0179 0.4750
vn -0.4526 0.8562 -0.2494
vn -0.4523 0.8568 -0.2478
vn -0.9955 -0.0950 -0.0065
vn -0.9956 -0.0937 -0.0067
vn -0.9954 -0.0952 -0.0070
vn -0.6340 -0.1189 -0.7641
vn -0.6326 -0.1180 -0.7655
vn -0.6335 -0.1203 -0.7643
vn 0.2874 0.5691 -0.7704
vn 0.2882 0.5697 -0.7697
vn 0.8911 -0.0281 0.4530
vn 0.8910 -0.0284 0.4531
vn -0.0732 -0.8931 -0.4438
vn -0.0727 -0.8925 -0.4452
vn 0.4585 -0.8510 0.2560
vn 0.4595 -0.8502 0.2568
vn 0.4629 -0.8484 0.2569
vn -0.6084 -0.1647 -0.7764
vn -0.6082 -0.1661 -0.7762
vn -0.7889 0.5936 -0.1590
vn -0.5988 -0.4590 -0.6563
vn -0.6002 -0.4566 -0.6567
vn 0.4831 0.1251 0.8666
vn -0.0598 0.9739 0.2188
vn -0.0593 0.9740 0.2187
vn 0.3653 -0.1867 0.9120
vn 0.1893 -0.9178 -0.3490
vn 0.1869 -0.9180 -0.3499
vn 0.1884 -0.9177 -0.3497
vn 0.5466 -0.0960 0.8319
vn 0.5459 -0.0956 0.8324
vn 0.0772 -0.9494 -0.3045
vn 0.0776 -0.9502 -0.3018
vn 0.0767 -0.9502 -0.3022
vn 0.5197 0.1779 -0.8356
vn -0.3280 0.9408 -0.0854
vn 0.1882 0.7269 -0.6605
vn 0.1354 -0.9287 -0.3453
vn 0.1376 -0.9279 -0.3464
vn 0.2522 -0.9460 0.2036
vn 0.2514 -0.9459 0.2049
vn 0.2265 -0.3839 0.8952
vn 0.2266 -0.3818 0.8960
vn 0.2235 -0.3822 0.8966
vn -0.0701 0.9924 -0.1013
vn -0.1792 -0.0907 0.9796
vn -0.1807 -0.0902 0.9794
vn -0.1791 -0.0924 0.9795
vn 0.2524 -0.5801 0.7745
vn 0.2527 -0.5798 0.7746
vn 0.2520 -0.5799 0.7748
vn 0.1370 -0.9271 -0.3489
vn 0.1372 -0.9283 -0.3456
vn 0.1345 -0.9281 -0.3471
vn -0.2237 0.9435 -0.2447
vn -0.2254 0.9424 -0.2471
vn -0.2226 0.9440 -0.2437
vn 0.0232 -0.9749 -0.2214
vn 0.0227 -0.9751 -0.2207
vn 0.1032 -0.9312 -0.3495
vn 0.1049 -0.9301 -0.3519
vn 0.1058 -0.9313 -0.3486
vn -0.2882 -0.1155 -0.9506
vn 0.2386 -0.9458 0.2204
vn 0.2387 -0.9459 0.2196
vn -0.9959 -0.0842 -0.0317
vn -0.9960 -0.0839 -0.0308
vn -0.2807 0.9211 -0.2696
vn -0.2801 0.9212 -0.2701
vn -0.2803 0.9212 -0.2699
vn 0.2266 -0.4047 0.8859
vn 0.2246 -0.4032 0.8871
vn 0.2246 -0.4049 0.8864
vn -0.1991 0.9678 0.1543
vn -0.2016 0.9674 0.1533
vn 0.1239 -0.9404 -0.3167
vn 0.1222 -0.9415 -0.3141
vn 0.1230 -0.9413 -0.3143
vn 0.5302 -0.1732 -0.8300
vn 0.5304 -0.1723 -0.8301
vn 0.5311 -0.1720 -0.8297
vn 0.0459 -0.9118 -0.4080
vn 0.0461 -0.9116 -0.4084
vn 0.0490 -0.9117 -0.4080
vn 0.7175 -0.3271 0.6150
vn -0.2333 -0.3788 -0.8956
vn -0.2335 -0.3773 -0.8962
vn 0.1050 -0.9276 -0.3586
vn 0.1059 -0.9274 -0.3587
vn 0.1070 -0.9267 -0.3602
vn 0.1261 -0.9413 -0.3133
vn 0.1280 -0.9417 -0.3113
vn 0.1274 -0.9415 -0.3119
vn 0.0505 -0.9303 -0.3634
vn 0.0506 -0.9312 -0.3610
vn 0.0486 -0.9302 -0.3639
vn -0.5942 -0.2286 -0.7712
vn -0.5942 -0.2277 -0.7714
vn -0.5930 -0.2287 -0.7720
vn -0.9958 -0.0911 -0.0079
vn -0.9959 -0.0900 -0.0070
vn -0.9959 -0.0898 -0.0084
vn -0.3476 0.8668 -0.3575
vn -0.9955 -0.0943 -0.0035
vn -0.9956 -0.0937 -0.0043
vn -0.9956 -0.0935 -0.0052
vn -0.0802 -0.9965 0.0233
vn -0.0795 -0.9965 0.0238
vn -0.9047 -0.4173 0.0863
vn -0.9951 -0.0977 0.0179
vn -0.9951 -0.0969 0.0184
vn -0.9951 -0.0977 0.0172
vn -0.9954 -0.0949 0.0128
vn -0.9954 -0.0951 0.0141
vn -0.9954 -0.0943 0.0139
vn 0.2195 -0.3086 0.9255
vn 0.2182 -0.3077 0.9261
vn 0.2156 -0.3080 0.9266
vn 0.2842 -0.2996 0.9108
vn 0.2829 -0.2988 0.9114
vn 0.3330 -0.1045 0.9371
vn -0.3668 -0.7188 0.5905
vn -0.4217 -0.8056 0.4162
vn 0.2796 -0.2559 0.9254
vn 0.2780 -0.2563 0.9257
vn -0.9828 -0.1824 0.0280
vn 0.2377 -0.9576 0.1627
vn 0.2376 -0.9578 0.1618
vn -0.7225 -0.4802 0.4974
vn 0.2406 -0.3191 0.9167
vn 0.2408 -0.3171 0.9173
vn 0.0998 -0.9513 -0.2916
vn 0.2555 -0.2580 0.9317
vn 0.2556 -0.2596 0.9313
vn -0.4687 -0.4554 -0.7569
vn 0.9158 -0.0206 0.4011
vn 0.9157 -0.0208 0.4013
vn 0.1755 -0.3270 0.9286
vn 0.5431 -0.1451 -0.8270
vn 0.5426 -0.1458 -0.8273
vn 0.5418 -0.1463 -0.8277
vn 0.1921 -0.2361 0.9526
vn 0.1935 -0.2355 0.9524
vn 0.1900 -0.2377 0.9526
vn -0.2307 0.9327 -0.2772
vn -0.2309 0.9327 -0.2772
vn -0.2306 0.9328 -0.2768
vn 0.2037 -0.3507 0.9141
vn 0.2025 -0.3521 0.9138
vn 0.2050 -0.3485 0.9146
vn -0.2684 0.9579 -0.1016
vn 0.2150 -0.3538 0.9103
vn 0.2127 -0.3514 0.9117
vn 0.2115 -0.3541 0.9110
vn 0.8654 -0.1849 0.4657
vn 0.8659 -0.1848 0.4648
vn 0.7049 -0.3496 0.6172
vn 0.7049 -0.3477 0.6182
vn 0.6966 -0.3228 0.6408
vn 0.6956 -0.3217 0.6424
vn -0.9976 -0.0689 0.0102
vn -0.9975 -0.0692 0.0107
vn -0.9976 -0.0678 0.0097
vn 0.4637 -0.8463 0.2622
vn 0.4638 -0.8470 0.2598
vn 0.4641 -0.8457 0.2635
vn 0.4154 -0.7844 -0.4606
vn 0.4157 -0.7838 -0.4613
vn 0.7531 -0.2082 0.6240
vn 0.7528 -0.2069 0.6249
vn 0.7529 -0.2100 0.6237
vn 0.5435 -0.4909 0.6809
vn 0.5442 -0.4917 0.6797
vn 0.9137 0.3773 0.1507
vn 0.7197 0.0503 0.6925
vn 0.7188 0.0514 0.6933
vn 0.7180 0.0520 0.6941
vn 0.2141 -0.4539 -0.8650
vn 0.2004 -0.3125 0.9285
vn 0.2023 -0.3117 0.9284
vn -0.6524 0.6701 0.3540
vn -0.6531 0.6692 0.3544
vn 0.6533 0.2777 0.7044
vn 0.6528 0.2790 0.7043
vn 0.7370 -0.1093 0.6670
vn 0.7373 -0.1108 0.6665
vn 0.7384 -0.1093 0.6654
vn 0.7335 -0.1195 0.6691
vn 0.7345 -0.1198 0.6679
vn 0.7348 -0.1176 0.6681
vn 0.1839 -0.1744 0.9673
vn 0.1845 -0.1739 0.9673
vn 0.1835 -0.1738 0.9675
vn 0.1982 -0.1896 0.9617
vn 0.1985 -0.1905 0.9614
vn 0.2012 -0.1777 0.9633
vn 0.2005 -0.1779 0.9634
vn -0.7351 0.6736 -0.0768
vn -0.7351 0.6734 -0.0780
vn -0.9995 -0.0127 -0.0296
vn -0.9995 -0.0119 -0.0302
vn -0.9994 -0.0119 -0.0313
vn 0.1886 -0.1695 0.9673
vn 0.1873 -0.1708 0.9673
vn 0.1878 -0.1702 0.9674
vn -0.6047 -0.2333 -0.7615
vn -0.6052 -0.2344 -0.7607
vn -0.3572 0.9068 -0.2239
vn -0.3579 0.9061 -0.2254
vn -0.3597 0.9055 -0.2252
vn 0.8480 -0.0644 0.5261
vn 0.8488 -0.0637 0.5249
vn 0.2325 -0.1520 0.9606
vn 0.1860 -0.1811 0.9657
vn 0.7818 -0.1070 0.6143
vn 0.7824 -0.1056 0.6137
vn 0.5220 0.0851 0.8487
vn -0.5082 0.8222 0.2564
vn 0.9571 -0.0670 0.2818
vn 0.9572 -0.0658 0.2818
vn 0.8729 -0.1037 0.4767
vn 0.8729 -0.1047 0.4765
vn 0.2027 -0.2966 0.9333
vn 0.1754 -0.2566 0.9505
vn 0.1978 -0.1910 0.9615
vn 0.9731 -0.1643 0.1615
vn 0.9731 -0.1642 0.1617
vn -0.2817 0.9211 -0.2687
vn -0.2819 0.9210 -0.2690
vn -0.2822 0.9209 -0.2687
vn 0.2087 -0.2061 0.9560
vn 0.2094 -0.2061 0.9559
vn -0.2328 0.9319 -0.2780
vn -0.2320 0.9321 -0.2780
vn -0.2324 0.9321 -0.2778
vn 0.7489 -0.0953 0.6558
vn -0.0332 -0.9150 -0.4021
vn -0.0327 -0.9150 -0.4020
vn -0.0315 -0.9155 -0.4011
vn 0.2031 -0.9099 -0.3618
vn 0.2041 -0.9101 -0.3606
vn 0.1457 -0.9217 -0.3595
vn 0.1437 -0.9226 -0.3579
vn 0.1458 -0.9222 -0.3580
vn 0.0576 -0.9295 -0.3642
vn 0.0562 -0.9307 -0.3615
vn 0.0575 -0.9290 -0.3657
vn 0.1414 -0.9216 -0.3614
vn 0.1432 -0.9219 -0.3599
vn 0.1404 -0.9204 -0.3648
vn 0.1472 -0.9295 -0.3383
vn 0.1429 -0.9294 -0.3402
vn 0.1412 -0.9296 -0.3403
vn 0.9005 -0.0072 0.4347
vn -0.0190 0.0508 -0.9985
vn 0.1865 -0.9205 -0.3432
vn 0.1900 -0.9204 -0.3418
vn 0.1860 -0.9220 -0.3395
vn -0.6405 -0.1118 -0.7598
vn -0.6388 -0.1137 -0.7609
vn -0.6412 -0.1106 -0.7594
vn 0.6011 0.2659 -0.7537
vn 0.6011 0.2667 -0.7533
vn 0.5557 0.2310 -0.7987
vn 0.5548 0.2339 -0.7984
vn 0.5560 0.2317 -0.7983
vn 0.6080 0.2862 -0.7406
vn 0.6072 0.2869 -0.7409
vn 0.6079 0.2879 -0.7400
vn 0.5512 -0.2022 -0.8095
vn 0.5512 -0.2013 -0.8097
vn 0.5533 -0.2015 -0.8082
vn 0.1236 -0.9613 -0.2462
vn 0.1258 -0.9604 -0.2486
vn 0.8901 -0.0027 0.4557
vn 0.8907 -0.0051 0.4547
vn 0.6019 0.2676 -0.7524
vn 0.6027 0.2679 -0.7516
vn 0.9066 0.4002 -0.1339
vn 0.5450 0.1984 -0.8146
vn 0.5960 0.2794 -0.7528
vn 0.5956 0.2802 -0.7528
vn 0.5229 0.2021 -0.8281
vn 0.5208 0.2019 -0.8295
vn 0.6326 0.2984 -0.7147
vn 0.8340 0.1736 -0.5237
vn 0.6082 0.2698 -0.7465
vn 0.6070 0.2698 -0.7475
vn 0.6063 0.2701 -0.7480
usemtl Stone
s off
f 26/1/1 103/2/2 105/3/3
f 8/4/4 5/5/4 2/6/4
f 25/7/5 4/8/5 47/9/5
f 94/10/6 97/11/6 88/12/6
f 98/13/7 13/14/8 99/15/9
f 98/13/10 84/16/10 13/14/11
f 40/17/12 37/18/13 18/19/13
f 92/20/14 81/21/14 90/22/14
f 20/23/15 36/24/15 35/25/15
f 1/26/16 23/27/17 106/28/17
f 38/29/18 45/30/18 22/31/18
f 3/32/19 95/33/20 86/34/21
f 76/35/22 72/36/23 78/37/24
f 6/38/25 2/6/25 12/39/26
f 37/18/27 41/40/27 30/41/27
f 95/33/28 81/21/29 92/20/29
f 2/6/30 22/31/30 45/30/30
f 73/42/31 41/40/32 37/18/32
f 54/43/33 53/44/34 21/45/35
f 24/46/36 77/47/37 98/13/38
f 86/34/39 98/13/39 77/47/40
f 107/48/41 109/49/41 108/50/41
f 53/44/42 6/38/43 12/39/44
f 77/47/45 44/51/46 105/3/47
f 54/43/48 56/52/49 34/53/50
f 77/47/51 105/3/52 45/30/53
f 95/33/54 32/54/55 81/21/55
f 93/55/56 88/12/57 97/11/57
f 89/56/58 90/22/58 81/21/58
f 8/4/59 105/3/60 103/2/61
f 31/57/62 48/58/63 104/59/64
f 11/60/65 44/51/66 106/28/67
f 42/61/68 95/33/69 3/32/70
f 50/62/71 83/63/71 64/64/72
f 108/50/73 11/60/74 106/28/73
f 106/28/75 23/27/75 108/50/75
f 109/49/76 28/65/76 110/66/76
f 108/50/77 23/27/77 107/48/77
f 8/4/78 103/2/79 7/67/78
f 42/61/80 45/30/80 38/29/80
f 103/2/81 26/1/82 101/68/83
f 48/58/84 100/69/85 104/59/86
f 48/58/87 31/57/88 74/70/89
f 80/71/90 41/40/90 58/72/90
f 105/3/91 44/51/92 11/60/93
f 58/72/94 41/40/94 73/42/95
f 41/40/96 80/71/96 30/41/96
f 56/52/97 61/73/98 34/53/99
f 32/54/100 39/74/101 89/56/100
f 28/65/102 102/75/102 110/66/102
f 57/76/103 20/23/104 46/77/104
f 12/39/105 2/6/106 5/5/106
f 52/78/107 49/79/107 55/80/108
f 40/17/109 28/65/110 79/81/110
f 28/65/111 107/48/111 79/81/111
f 70/82/112 49/79/113 9/83/113
f 2/6/114 6/38/114 22/31/114
f 51/84/115 64/64/116 39/74/117
f 30/41/118 80/71/118 27/85/118
f 43/86/119 44/51/120 24/46/121
f 51/84/122 22/31/123 6/38/123
f 32/54/124 89/56/124 81/21/124
f 68/87/125 87/88/126 83/63/127
f 32/54/128 38/29/128 51/84/129
f 20/23/130 15/89/130 46/77/130
f 21/45/131 53/44/132 35/25/131
f 31/57/133 63/90/134 74/70/135
f 25/7/136 101/68/136 4/8/136
f 105/3/137 8/4/138 45/30/138
f 17/91/139 20/23/139 35/25/139
f 25/7/140 7/67/140 103/2/141
f 1/26/142 106/28/143 44/51/144
f 111/92/145 59/93/146 66/94/145
f 10/95/147 7/67/148 16/96/148
f 40/17/149 79/81/150 72/36/151
f 107/48/152 28/65/152 109/49/152
f 40/17/153 102/75/154 28/65/154
f 58/72/155 63/90/156 80/71/155
f 51/84/157 38/29/158 22/31/158
f 1/26/159 19/97/160 79/81/160
f 45/30/161 3/32/162 77/47/163
f 14/98/164 86/34/164 95/33/165
f 44/51/166 43/86/167 1/26/168
f 1/26/169 43/86/170 19/97/170
f 3/32/171 45/30/172 42/61/172
f 54/43/173 64/64/174 51/84/175
f 12/39/176 10/95/177 47/9/178
f 103/2/179 101/68/180 25/7/180
f 43/86/181 93/55/182 19/97/181
f 57/76/183 36/24/184 20/23/184
f 70/82/185 52/78/186 55/80/187
f 12/39/188 47/9/189 17/91/189
f 38/29/190 32/54/190 42/61/190
f 47/9/191 10/95/192 16/96/191
f 30/41/193 29/99/193 37/18/193
f 94/10/194 88/12/194 99/15/195
f 97/11/196 94/10/196 96/100/196
f 74/70/197 49/79/198 33/101/199
f 91/102/200 96/100/201 94/10/201
f 74/70/202 63/90/203 58/72/204
f 100/69/205 17/91/205 4/8/205
f 98/13/206 86/34/206 84/16/206
f 16/96/207 25/7/207 47/9/207
f 58/72/208 49/79/208 74/70/209
f 52/78/210 70/82/211 67/103/210
f 87/88/212 68/87/213 76/35/214
f 7/67/215 25/7/215 16/96/215
f 70/82/216 71/104/217 69/105/218
f 99/15/219 13/14/220 94/10/221
f 46/77/222 48/58/223 60/106/224
f 24/46/225 44/51/226 77/47/227
f 112/107/228 59/93/229 62/108/228
f 56/52/230 60/106/231 61/73/232
f 21/45/233 35/25/233 36/24/233
f 67/103/234 66/94/234 59/93/235
f 64/64/236 112/107/237 50/62/237
f 24/46/238 93/55/239 43/86/240
f 87/88/241 76/35/242 78/37/243
f 5/5/244 7/67/244 10/95/245
f 61/73/246 59/93/247 112/107/248
f 63/90/249 31/57/250 26/1/251
f 56/52/252 54/43/253 60/106/254
f 71/104/255 9/83/255 49/79/255
f 57/76/256 21/45/257 36/24/257
f 112/107/258 34/53/259 61/73/260
f 61/73/261 52/78/262 59/93/263
f 57/76/264 60/106/265 54/43/266
f 35/25/267 53/44/268 12/39/269
f 54/43/270 34/53/271 64/64/272
f 8/4/273 2/6/273 45/30/273
f 34/53/274 112/107/275 64/64/276
f 111/92/277 62/108/277 59/93/278
f 85/109/279 112/107/279 62/108/279
f 6/38/280 53/44/281 51/84/282
f 51/84/283 53/44/284 54/43/285
f 68/87/286 67/103/287 69/105/288
f 65/110/289 68/87/290 83/63/289
f 65/110/291 111/92/291 66/94/291
f 85/109/292 111/92/292 65/110/292
f 111/92/293 85/109/293 62/108/293
f 66/94/294 68/87/295 65/110/294
f 112/107/296 85/109/296 50/62/296
f 52/78/297 67/103/297 59/93/298
f 85/109/299 65/110/299 50/62/299
f 82/111/300 83/63/300 87/88/301
f 15/89/302 100/69/302 46/77/302
f 66/94/303 67/103/303 68/87/304
f 15/89/305 20/23/305 17/91/305
f 96/100/306 19/97/306 93/55/307
f 83/63/308 50/62/308 65/110/308
f 26/1/309 27/85/310 63/90/311
f 67/103/312 70/82/313 69/105/314
f 99/15/315 24/46/316 98/13/317
f 71/104/318 76/35/319 69/105/320
f 5/5/321 8/4/321 7/67/321
f 68/87/322 69/105/323 76/35/324
f 91/102/325 75/112/326 19/97/326
f 71/104/327 49/79/327 73/42/328
f 58/72/329 73/42/330 49/79/329
f 32/54/331 51/84/332 39/74/333
f 70/82/334 55/80/335 49/79/336
f 80/71/337 63/90/338 27/85/337
f 71/104/339 72/36/340 76/35/341
f 71/104/342 70/82/343 9/83/342
f 102/75/344 18/19/344 29/99/344
f 72/36/345 37/18/346 40/17/347
f 17/91/348 100/69/348 15/89/348
f 82/111/349 87/88/350 78/37/349
f 92/20/351 14/98/351 95/33/352
f 40/17/353 18/19/354 102/75/354
f 37/18/355 72/36/356 73/42/357
f 72/36/358 71/104/359 73/42/360
f 13/14/361 91/102/362 94/10/363
f 91/102/364 82/111/365 75/112/365
f 14/98/366 82/111/366 13/14/367
f 32/54/368 95/33/369 42/61/368
f 64/64/370 83/63/371 39/74/372
f 91/102/373 13/14/374 82/111/375
f 12/39/376 17/91/377 35/25/377
f 3/32/378 86/34/379 77/47/380
f 19/97/381 72/36/382 79/81/381
f 92/20/383 90/22/383 82/111/383
f 14/98/384 92/20/384 82/111/384
f 78/37/385 72/36/386 19/97/385
f 18/19/387 37/18/387 29/99/387
f 86/34/388 14/98/388 84/16/388
f 39/74/389 83/63/390 89/56/390
f 96/100/391 91/102/392 19/97/391
f 75/112/393 82/111/393 78/37/393
f 83/63/394 82/111/394 89/56/394
f 90/22/395 89/56/395 82/111/395
f 97/11/396 96/100/396 93/55/397
f 88/12/398 93/55/399 24/46/400
f 13/14/401 84/16/402 14/98/402
f 24/46/403 99/15/404 88/12/405
f 75/112/406 78/37/406 19/97/406
f 54/43/407 21/45/408 57/76/409
f 52/78/410 33/101/411 49/79/410
f 52/78/412 61/73/413 33/101/414
f 46/77/415 60/106/416 57/76/417
f 33/101/418 61/73/419 60/106/420
f 48/58/421 33/101/422 60/106/423
f 79/81/424 107/48/424 23/27/424
f 47/9/425 4/8/425 17/91/425
f 33/101/426 48/58/427 74/70/428
f 5/5/429 10/95/430 12/39/431
f 27/85/432 26/1/433 29/99/432
f 26/1/434 104/59/435 101/68/436
f 11/60/437 110/66/438 105/3/439
f 26/1/440 31/57/441 104/59/442
f 48/58/443 46/77/444 100/69/444
f 79/81/445 23/27/445 1/26/446
f 108/50/447 110/66/447 11/60/448
f 102/75/449 29/99/449 110/66/449
f 100/69/450 4/8/450 101/68/450
f 110/66/451 29/99/451 26/1/452
f 100/69/453 101/68/453 104/59/454
f 110/66/455 108/50/455 109/49/455
f 29/99/456 30/41/456 27/85/456
f 105/3/457 110/66/458 26/1/459
